<svg id="Camada_1" data-name="Camada 1" xmlns="http://www.w3.org/2000/svg" viewBox="0 0 1920 1080"><defs><style>.cls-1{fill:#1e1b46;}.cls-2{fill:#e50000;}.cls-3{fill:#e4e4e4;}</style></defs><path class="cls-1" d="M1904.11,409.3c-9.21,26.33-18.57,52.6-27.61,79q-22.34,65.12-44.23,130.38c-2.29,6.86-5.51,9.36-13,9.29-42.16-.38-84.33-.07-126.49-.36-4.15,0-8.22-2.77-12.43-3.87-3.88-1-8-2.48-11.82-2.09a170.51,170.51,0,0,0-22.56,4.18c-18,4.34-35,1.08-51.5-6a46.38,46.38,0,0,1-25.2-25.53,37.22,37.22,0,0,0-2.2-3.94,19.75,19.75,0,0,0-2.47,3.68c-3.57,9.28-7.16,18.56-10.43,27.94-1.48,4.23-3.83,5.93-8.41,5.92-36-.15-72.06-.07-108.09-.12-1.87,0-5.1-.09-5.38-.92-2.7-7.95-8.42-3.73-13-3.43-21,1.37-42,3.73-63,4.09-16.85.28-32.6-4-43.38-19.09-3.75-5.26-4.3.17-5.22,2.51A94,94,0,0,1,1278.57,650c-20.26,16.35-43,26.39-69.47,26.3-32.17-.1-64.34,0-96.51-.61a101,101,0,0,1-44.24-11c-13.67-6.94-25-16.48-31.88-30.36-2.65-5.37-6-6.93-11.67-6.76-11.49.36-23,.08-34.49.12-13,0-25.82-.2-38.69-3.59-7.4-2-16-1-23.74.27-22.86,3.64-45.77,5.2-68.63,1.55-28.17-4.49-48-20.68-60.35-46.22-4.16-8.6-4.27-8.66-10.88-1.64-13.65,14.52-27.35,29-40.71,43.76-4,4.39-8.12,6-14,6q-60.36-.35-120.74,0c-6.87,0-10.42-1.24-10.86-9.15-.56-10.27-2.62-20.48-4.24-30.68-.37-2.32-1.57-4.5-2.39-6.74-1.28,2.2-2.9,4.28-3.78,6.63-3.85,10.4-7.92,20.75-11,31.38-2,6.8-5.63,8.67-12.42,8.58-27.21-.35-54.43-.14-81.64-.15-2.3,0-4.82.45-6.86-.33-17.64-6.71-35.12-3.07-53.12-1.21-19.24,2-39,.71-58.36-.67-12.84-.92-24.31-7.15-33.14-16.78-3.81-4.17-6.69-3.3-10.85-1.21-17.88,9-36.5,16-56.41,18.72a220.49,220.49,0,0,1-28.63,1.56c-30.65.12-61.59,2-91.64-4.91-42.53-9.84-76.78-32-97.23-72.1C36.52,524.42,37.57,496.75,44.06,469c4.39-18.76,11.32-36.7,25.46-50.63,3.93-3.88,2.45-6.17-.23-9.5C62.8,400.84,56,393,50.41,384.3c-10.78-16.71-20.77-33.93-31.16-50.9-1.94-3.16-4.2-6.12-6.31-9.17v-2.3c47.64-.57,95.29-.64,142.91-2,13.77-.41,27.43-4.66,41.14-7.15h69c2.94.68,5.85,1.69,8.83,2,25.93,2.57,51.93,4.48,77.78,7.67,16.94,2.08,34.31,3.42,48.37,15.7,4.6,4,6.69,7.58,6.33,13.48-.49,8-.07,16.09-.5,24.12-.33,6.21,1.61,8.15,8,6.81,32.55-6.83,65.6-4.9,98.52-5,22.62-.07,45.25.25,67.87-.14,9.82-.18,18.82,1.34,27.65,5.86,3.83,2,8.82,2.25,13.28,2.28,33,.23,66,.36,98.93.14,6.85,0,9.51,1.89,9.36,9.08-.32,15.32.12,30.65.37,46a40.68,40.68,0,0,0,1.08,6.41c2-1.42,4.59-2.44,6-4.32,7.48-9.71,14.73-19.6,22-29.49,6.32-8.64,10.77-20.78,19.25-25.13,8.91-4.57,21.63-1.83,32.68-2.09,32.91-.78,66,2.36,98.62-4.44,24.66-5.15,49.53-4.29,74.42-4.33,26.45,0,52.94.69,79.36-.26,16.85-.61,31,3.88,42.69,15.72,3.7,3.75,6.47,3.7,10.84,1,18.71-11.76,39.63-16.28,61.38-16.33q143.79-.33,287.58-.08c10.27,0,10.33.13,7,9.86q-17.71,51.56-35.46,103.09a114.49,114.49,0,0,0-3.58,13.24c-.21,1,1.08,2.3,1.68,3.46.93-.57,2.31-.92,2.72-1.76,2.56-5.12,5.38-10.18,7.23-15.57,11.79-34.36,23.53-68.75,34.84-103.28,2.26-6.87,5.28-9.43,12.82-9.16,22.22.81,44.48.33,66.7,1,12,.36,22-2.9,31.81-10.26,31.91-23.94,67.24-41.09,106.47-49.43,11.53-2.44,23.28-3.87,34.93-5.76h18.41c5.58.91,11.15,1.89,16.74,2.74,14.12,2.14,14.14,2.12,10,15.26-1,3.27-2.28,6.47-3.18,9.78a16.92,16.92,0,0,0,0,4.33c1.22-.58,2.73-.86,3.6-1.77,18.32-19.07,41.55-21.2,65.78-18.37,30.71,3.58,49.83,21.62,56.32,51.74.71,3.32,1.72,6.58,2.59,9.86ZM1067.26,534.36l-.16-.29c-.48,26.65,10,42.46,34.4,48.68,32.28,8.24,63.12,4.75,91-15,3.44-2.43,6.65-5.18,10.07-7.63a17.12,17.12,0,0,1,3.74-1.51c.08,1.09.54,2.33.19,3.27-7,18.55-16.48,35.4-37.65,39.85-17.16,3.61-34.74,5.31-52.2,7.33-7.66.89-15.27.28-21.2-6.25-1.54-1.69-4.78-2.33-7.31-2.52-6.49-.5-13-.18-19.53-.74-7.13-.62-8.56,3.19-8.13,9.06.82,11.15,5.62,20.53,15.74,25,10.34,4.61,21.45,8.67,32.6,10.11,36.72,4.73,73.4,1.85,110-2.65,32.82-4,55.19-21.59,68-51.27,7.89-18.21,14.2-37.11,21.2-55.7,1.33-3.55,2.53-7.13,3.79-10.7.95,4,1.92,7.93,2.83,11.9a19.1,19.1,0,0,1,.21,2.29c2.38,24.43,15.11,40.61,39.08,46.68,10.54,2.67,21.94,3.18,32.87,2.75,18.26-.72,35-7.83,51.41-15.36,3.34-1.53,7-2.32,10.55-3.45l-.3-.23a57.16,57.16,0,0,1-.51,6.82c-2.22,11.38-2.26,11.5,8.73,11.32,24.14-.4,48.28-1.2,72.43-1.27,6.93,0,9.91-2.39,12.06-9q18.9-57.78,38.74-115.26c5.82-16.88,1.08-14.27,20.42-13.86,11.2.24,11.47.54,8,10.82-6.34,18.84-13.31,37.47-19.57,56.33-12.11,36.51,4.45,66.42,41.79,75.09,28.84,6.68,56.22.28,82.91-10.69,4.11-1.69,8.33-3.1,12.49-4.63-1,4.31-1.67,8.77-3.21,12.89-2.31,6.15.29,7.1,5.73,7.06q38-.27,75.89,0c5.11,0,7.45-1.86,9-6.56,15.74-46.75,31.7-93.42,47.48-140.15,2.57-7.61,2.33-7.85-6.35-7.9-19.93-.1-39.86,0-59.8,0-22.12,0-22,0-29.14,21.41-8.2,24.68-16.85,49.21-24.67,74-2.47,7.83-6.46,11.42-14.61,11-7.64-.39-15.34.23-22.94-.4-19.3-1.6-23.76-7.18-18.92-26,4.47-17.37,10.3-34.4,16-51.44,2.53-7.58,4.25-17.56,9.81-21.39s15.46-1.5,23.46-1.47c24.94.08,24.94.15,30.27-23.79a6.8,6.8,0,0,1,.28-1.12c1.94-4.78-.4-5.94-4.75-6.1-10.72-.38-21.44-.85-32.14-1.64-8.14-.6-8.24-.89-5.63-8.89,4.74-14.54,9.78-29,14.45-43.56,2.88-9,2.28-9.7-7-10.32-17.3-1.17-33.34,4-49.06,10.23-29,11.46-55.91,26.81-81.62,44.25a36.33,36.33,0,0,1-21.4,6.52c-20.31,0-40.62.74-60.93.62-7.13,0-11.16,1.63-12.94,9.25a202.37,202.37,0,0,1-9.11,28.37c-8.31,21-16.39,42.06-26.06,62.39-4.84,10.17-12.08,19.61-19.86,27.85-8.7,9.2-20.52,10.06-32,5.11-10.57-4.56-11.76-14.48-11.11-24.35.53-8,1.19-16.2,3.59-23.75,8.11-25.47,17-50.7,25.65-76,2.8-8.16,2.93-8.26-5.29-8.41q-37.37-.71-74.73-1.14c-2.6,0-7.1,0-7.53,1.16-4,10.89-8.22,4.66-13.74,1.36-4-2.39-9.49-3-14.36-3.12a1216.29,1216.29,0,0,0-153.89,4.44c-27.45,2.61-48.2,15.91-64.45,37.44-2.67,3.53-5.84,6.69-8.78,10l.27.28c3.62-10.84,7.41-21.64,10.72-32.58.54-1.79-.49-5.71-1.62-6.07-6.47-2.06-13.15-4.48-19.82-4.69-36-1.12-72-2.43-107.94-2.08-30.39.29-60.12,5.76-88.34,17.84-3,1.28-6.45,1.45-9.69,2.14l.3.24c1.39-2.25,2.88-4.45,4.15-6.76,1-1.9,1.83-3.95,2.73-5.93a46.55,46.55,0,0,0-6.58-.94c-24.91,0-49.83.37-74.75.09-6.83-.07-11.22,2.2-15.47,7.48-25,31-50.28,61.82-75.53,92.65-2.13,2.61-4.62,4.94-6.94,7.39-.56-3.48-1.59-7-1.6-10.44q-.19-44.25,0-88.5c0-5.76-.58-9.34-7.89-9-41.65,1.7-83.15-1.07-124.59-4.92-4.2-.39-8.42-.54-12.63-.68-36.77-1.25-73.58-3.32-110.07,3.55-20.8,3.92-41.07,9.36-58.56,22.13-26.92,19.66-43.41,46-49.92,78.51-1.1,5.52-3.13,7.47-8.4,8.48-19.92,3.84-39.67,8.51-59.62,12.2a251.76,251.76,0,0,1-35.32,4.3c-31.37,1.29-47-14.48-46.44-45.93a63.11,63.11,0,0,1,1-10.27c7.57-41.36,31.87-68.56,70.91-83,22.67-8.42,46.37-9.57,70.22-9.34,16.43.16,32,3.16,45.28,13.72,4.24,3.38,5.93,2.34,5.83-2.84-.24-11.87-.29-23.75-.74-35.62-.48-13-.64-12.9-13.65-14.29-32.75-3.53-65.46-7.49-98.25-10.54-24-2.24-48.53-4.62-72.15,1.2-32.51,8-65.31,6.59-98.16,6.71-6.13,0-12.27-.12-18.4.06a86.23,86.23,0,0,0-8.84,1.15c1,3.16,1.34,6.92,3.28,9.38,15.83,20.09,33.81,36.44,61.9,35.94,17.24-.3,34.49.47,51.74,1,1.86.05,3.68,1.55,5.52,2.38-1.57,1-3.07,2.69-4.73,2.86-10.64,1.09-21.3,2.32-32,2.62-40.25,1.12-71.55,23.75-82.87,62.43C62.55,513,73.18,552.36,113,574.19a166.68,166.68,0,0,0,36.15,14.26c40.81,11.13,81.88,8,123.09,1.25,23.45-3.84,44.22-11.78,60.75-29.4,5.32-5.67,5.94-5.52,8.92,2.35,7,18.37,20.85,27.65,39.51,31,28.15,5,53.88-1.76,78.22-15.77,5.42-3.12,11.19-5.64,16.79-8.43-2,5.67-4,11.35-6.06,17-3.07,8.42-3,8.78,6.42,8.69,24.53-.24,49.06-1,73.59-.9,7,0,10.14-2.45,12.29-8.87,6.65-20,13.88-39.72,20.89-59.55q12.81-36.24,25.66-72.46a21,21,0,0,1,2.36-3.78c.58,1.48,1.5,2.91,1.69,4.43,5.46,45.22,11,90.43,16.07,135.7.82,7.36,4,8.53,10.34,8.44q41.4-.58,82.8-.42c6,0,9.94-2.3,13.77-6.55,18.71-20.79,37.64-41.39,56.5-62Q810.15,510,827.64,491c.8-.86,2.2-1.17,3.32-1.74-.18,1.09-.32,2.18-.55,3.25-2.92,13.81-7,27.49-8.55,41.45-3.58,33.24,13.21,54.32,46.17,59.68,30.42,4.94,57.47-4.27,83-19.94,3.22-2,6.52-3.85,9.78-5.76l-.22-.27c-2,6.42-3.86,12.88-6.06,19.24-2.83,8.15-2.94,8.35,5.48,8.26,25.2-.25,50.41-1,75.61-.94,6.63,0,9.33-2.59,11.3-8.5,4.79-14.46,10.16-28.74,15.52-43C1063.51,539.72,1065.61,537.12,1067.26,534.36ZM315.75,429.55c-34,.6-61.25,8.49-83.17,30.33-8,8-14.11,17.2-16.73,28.26-3.75,15.8,4.29,25.4,20.44,24.83a54.76,54.76,0,0,0,10.25-1.07c20.86-4.71,41.63-9.83,62.54-14.28,5.41-1.15,7.52-4,9.14-8.72,6.16-17.81,14.36-34.6,26.55-49.12,3.44-4.09,2.4-6-2.17-6.72C332.41,431.55,322.18,430.37,315.75,429.55Zm1516.3-2.14c14.91.11,28.71-5.08,37.25-13.43,13.16-12.84,13.36-30.94.5-43.94-18.2-18.38-54.2-18.2-72.11.37-12.35,12.8-12.23,30.47.38,43.12C1807.86,423.34,1820.26,426.6,1832.05,427.41Z"/><path class="cls-2" d="M1556.71,765.68c-5.36-1.75-10.93-3-16-5.36-10.2-4.61-13.67-11.41-11-22.17a143,143,0,0,1,7.53-22.78c6.06-14,17.15-23.3,32.06-24.74a223.06,223.06,0,0,1,47.84.5c16.71,2,22.06,13,16.61,29.23-1.58,4.69-3.73,9.18-5.56,13.79-7.13,18-19.81,28.52-39.59,29.75-2.2.14-4.35,1.17-6.53,1.78Zm47.73-49.4c.19-8.61-5.39-14.59-14.14-14.56-7.18,0-14.21,2.22-18.1,8.29-4.64,7.25-9.12,15.14-11.2,23.37-3.3,13.07,3.94,19.46,17.38,17C1591,748.15,1604.11,731,1604.44,716.28Z"/><path class="cls-2" d="M884.9,765.68c-6.2-1.65-12.53-2.95-18.59-5-13.73-4.67-18.17-12-15.81-26.15,3-18,10.39-34.26,21.21-48.94,5-6.8,11.58-11.13,20.18-11.62,17.53-1,35.08-2,52.63-2.67,2.24-.09,4.55,1.54,6.83,2.37-1,2.72-1.33,6.3-3.28,8a16.77,16.77,0,0,1-9.3,3.36,127.63,127.63,0,0,1-18.34-.32c-11-.84-19.39,3.62-25.57,12.32A81.11,81.11,0,0,0,881,733c-1.29,9,3.54,15.22,13.4,16.63,12.89,1.85,25.89,2.64,38.36-2.9,1.53-.68,3.48-.42,5.24-.6a33.62,33.62,0,0,1-1.25,5.24A18,18,0,0,1,922.28,763a96.93,96.93,0,0,0-9.77,2.69Z"/><path class="cls-2" d="M1080.41,763.15c-19,.39-20.43-1.57-14-19.27,4.69-12.93,9.68-25.76,14.47-38.66.92-2.48,2.91-5.82,2-7.51-5.22-9.92,2.21-8.32,7.22-8,8.44.57,17.86-2.85,24.75,5.55.58.71,4-.39,5.77-1.23,16.49-7.69,32.89-10,49,.8,3.73,2.49,6.83,2.36,10.52,0,11.86-7.54,25-6.48,37.92-4.56s16.76,9.07,12.05,21.4c-4.62,12.12-9.8,24-14.59,36.09-1,2.45-2.64,5.78-1.75,7.64,4.86,10.19-2.88,7.81-7.78,8.23-2.67.23-5.36.24-8,.25-13.23.05-15-2-10.73-14.8,3.09-9.42,7.41-18.44,10.87-27.75,2.15-5.8,7-12-.11-17.64-5.52-4.4-16.41-3.28-22.42,2.24a22.81,22.81,0,0,0-5.38,7.33c-5.71,12.93-11.12,26-16.61,39-.59,1.4-1.78,3.48-1.25,4.27,5.55,8.22-1,6.72-5.41,6.91-5,.22-10,.62-14.93.36-7.23-.38-9.12-2.49-7.22-9.46,2.1-7.71,5.34-15.11,8.13-22.63,2.39-6.45,5.29-12.75,7.15-19.35,1.91-6.79-.71-10-7.72-11-10-1.47-20.31,3.24-24.75,12.86-5.59,12.13-10.08,24.77-15,37.19a4.52,4.52,0,0,0-.58,2.19c.63,3.08,1.43,6.12,2.12,9.19a2.36,2.36,0,0,1-1,.37C1088.83,763.16,1084.62,763.15,1080.41,763.15Z"/><path class="cls-2" d="M1451.42,671.49c21.75-.87,17.28,1.43,12.6,17.11-.69,2.34-.46,4.94-.65,7.42a38.83,38.83,0,0,0,6.43-1.5c11.22-4.7,22.93-5.76,34.88-4.87,15,1.11,18.75,7.05,13.35,21.32-4.19,11.07-9.23,21.81-13.23,32.94-1.92,5.34-6.53,10.91-1.44,17.09.17.21-1.11,2.37-1.72,2.37-7.62,0-15.35.58-22.81-.55-6.34-1-5.44-6.61-3.92-11.07,3.57-10.48,7.7-20.76,11.24-31.24,1.62-4.78,6.63-11,1.18-14.54a25.67,25.67,0,0,0-18.11-3c-5.19,1.25-11.19,6.12-13.48,11a318.91,318.91,0,0,0-15.44,40.59c-2.67,8.48-1.79,8.76-10.77,9.05-20.75.68-22.32-1.55-14.81-21.38,6.08-16.07,12.28-32.09,18.38-48.15a82.66,82.66,0,0,0,3.67-10.83C1439.38,671.79,1439.27,671.76,1451.42,671.49Z"/><path class="cls-2" d="M1013.54,690c9.19,0,18.44-.61,27.57.15,13.12,1.09,16.88,6.79,13.08,19.35s-8.46,24.58-12.26,37c-1.33,4.37-5.55,8.85-1.25,13.95.16.19-1.26,2.52-2,2.53-8,.2-17.81,3-23.7-.54-8-4.8-12.57-1-19.29.2-10,1.83-20.63,1.15-30.89.29-7.71-.64-13-8.3-13.21-16.34-.26-13,7.86-25.27,20.63-28.48,8.79-2.21,18.14-2.25,27.25-3.13,6.47-.63,13.08-.5,19.38-1.83,2.59-.55,4.55-4.05,6.8-6.21-2.62-1.7-5.21-4.79-7.88-4.86-8.78-.21-17.59,1.14-26.37.89-3.17-.09-7.52-2.18-9.14-4.74-2.92-4.63,0-8.47,6-8.64,8.43-.25,16.87-.06,25.3-.06Zm-7.47,36.36c-4.52.47-9.06.89-13.57,1.46a15.41,15.41,0,0,0-4.39,1.17c-6.12,2.82-7.72,8.1-7,14.19s5.74,6.15,10.35,6.33c2.66.11,5.32,0,8,0,11.32,0,11.32,0,15.32-10.62C1019.51,726.25,1019.51,726.25,1006.07,726.31Z"/><path class="cls-2" d="M1687.17,763.33c-7.64,0-15.37.71-22.91-.15-17.16-1.95-24.51-12.08-19.91-28.65,2.72-9.76,7.38-19.15,12.31-28.07,4.17-7.56,11.46-12.14,19.93-14.46,17.29-4.75,34.74-5.54,52.15-1.16,13.45,3.38,18.4,10.65,16.08,22-1.93,9.52-7.2,14.28-18.89,14.94-14.12.8-28.29.54-42.44.81-8.28.16-13.54,7.51-9.26,14.1,2.14,3.29,7.24,6.11,11.25,6.48,12.5,1.14,25.19,2.19,37.35-2.88,2.21-.92,4.89-.75,7.36-1.08-.67,2.54-1,5.26-2.08,7.58-3.35,7-9.76,9.48-16.87,10.12-8,.72-16,.88-24.06,1.28C1687.18,763.93,1687.17,763.63,1687.17,763.33Zm16.08-61.28c-8.09.37-14.72,2.71-19.31,9.14-2.38,3.34-2.11,5.73,2.7,5.75q12.55.06,25.12,0c5.39,0,6.35-2.84,4.91-7.52C1714.44,702.18,1708.28,702.76,1703.25,702.05Z"/><path class="cls-2" d="M1327.68,690c3.83,0,7.66,0,11.49,0,1.51,0,4.08-.1,4.36.58,4.17,10.11,10.22,2.63,15.64,2,10.54-1.26,21.19-3.34,31.69-2.86,13.86.65,17.12,6.83,12.15,20.15-4.14,11.08-9.28,21.81-13.19,33-2,5.63-7.38,11.55-1.32,18,.1.1-1.23,2.24-1.92,2.25-7.25.12-14.56.49-21.75-.21s-6.82-6.37-5.25-11.34c2.52-8,5.69-15.81,8.57-23.7q1.57-4.3,3.1-8.63c4.87-13.75.49-19.31-14-17.87-8,.79-14,5-17,12-5.63,13.34-11,26.88-15.28,40.69-2.74,8.75-1.82,9-11.48,9.24-20,.42-21.34-1.39-14.57-19.93,4.45-12.2,9.2-24.29,13.74-36.45,1.07-2.85,3.41-6.53,2.47-8.61-5.82-12.9,4.76-7.16,9.11-8.34A13.09,13.09,0,0,1,1327.68,690Z"/><path class="cls-2" d="M1777.56,763.16c-8,0-16.11.45-24.08-.24-2.81-.24-7.14-2.89-7.62-5.13-.71-3.26,1.06-7.3,2.58-10.64.38-.84,3.84-.46,5.87-.32,12.47.86,24.93,2.26,37.42,2.56,6,.14,9.74-4.28,10.61-10.24.92-6.26-4.11-7.44-8.48-8.84-7.28-2.33-14.67-4.32-21.87-6.85-5-1.77-10.48-3.6-10.92-10.27-.49-7.34,1.43-14.15,8.18-17.69a42,42,0,0,1,16.28-4.85c13.35-.87,26.77-.79,40.16-.76,2.2,0,6,1.39,6.23,2.66.41,2.2-.68,5.84-2.41,7a21.75,21.75,0,0,1-10.43,3.69c-6.85.45-13.77-.2-20.66-.22-4.26,0-9.56.11-9.67,5.45,0,2.24,4.43,5.55,7.48,6.7,7.49,2.8,15.44,4.37,23,6.91,13,4.34,15.85,11.31,10.09,23.83-3.73,8.1-9.61,14.09-18.69,15.34-11,1.51-22,2.18-33,3.22Z"/><path class="cls-2" d="M1256.78,763.28c-19.57-.16-19.77-.23-13.36-18.66,4.39-12.62,9.49-25,14.19-37.52,1.06-2.85,3.3-6.41,2.42-8.63-4.33-11,3.62-8.29,8.91-8.44a120.89,120.89,0,0,1,12.63.22c8.1.62,9.48,2.43,6.76,10.21-5.16,14.79-10.77,29.42-16.16,44.13-1.05,2.87-2.34,5.74-2.83,8.72C1267.68,763.34,1267.8,763.36,1256.78,763.28Z"/><path class="cls-2" d="M1610.64,678.13c-1.85-.22-4.15-.36-6.41-.77-9.81-1.78-19.6-4.08-28.81,2.42-1.12.79-3.46-.17-5.23-.32a21,21,0,0,1,2-4c6.64-8.57,14.41-12.8,25.94-9.44,9.72,2.84,20.17,6,29.4-2.36.8-.73,2.74-.22,4.15-.28-.22,1.69.14,3.84-.77,5A23.73,23.73,0,0,1,1610.64,678.13Z"/><path class="cls-2" d="M1281.74,683.54c-2.66-.11-5.48.28-7.94-.49s-6.46-3.1-6.27-4.07c.57-2.93,2.65-7.72,4.48-7.88,7.44-.65,15,0,22.51.69.79.07,2.25,4.09,1.64,5.54-1,2.46-3.09,5.26-5.41,6.22-2.6,1.07-6,.24-9,.24Z"/><path class="cls-3" d="M875.24,436.48c3.24-.69,6.7-.86,9.69-2.14,28.22-12.08,58-17.55,88.34-17.84,36-.35,72,1,107.94,2.08,6.67.21,13.35,2.63,19.82,4.69,1.13.36,2.16,4.28,1.62,6.07-3.31,10.94-7.1,21.74-10.72,32.58-.21.59-.41,1.18-.61,1.77l.34-2.05c2.94-3.34,6.11-6.5,8.78-10,16.25-21.53,37-34.83,64.45-37.44a1216.29,1216.29,0,0,1,153.89-4.44c4.87.15,10.37.73,14.36,3.12,5.52,3.3,9.78,9.53,13.74-1.36.43-1.17,4.93-1.2,7.53-1.16q37.36.44,74.73,1.14c8.22.15,8.09.25,5.29,8.41-8.66,25.3-17.54,50.53-25.65,76-2.4,7.55-3.06,15.78-3.59,23.75-.65,9.87.54,19.79,11.11,24.35,11.46,4.95,23.28,4.09,32-5.11,7.78-8.24,15-17.68,19.86-27.85,9.67-20.33,17.75-41.43,26.06-62.39a202.37,202.37,0,0,0,9.11-28.37c1.78-7.62,5.81-9.29,12.94-9.25,20.31.12,40.62-.64,60.93-.62a36.33,36.33,0,0,0,21.4-6.52c25.71-17.44,52.65-32.79,81.62-44.25,15.72-6.22,31.76-11.4,49.06-10.23,9.29.62,9.89,1.33,7,10.32-4.67,14.57-9.71,29-14.45,43.56-2.61,8-2.51,8.29,5.63,8.89,10.7.79,21.42,1.26,32.14,1.64,4.35.16,6.69,1.32,4.75,6.1a6.8,6.8,0,0,0-.28,1.12c-5.33,23.94-5.33,23.87-30.27,23.79-8,0-17.91-2.34-23.46,1.47s-7.28,13.81-9.81,21.39c-5.67,17-11.5,34.07-16,51.44-4.84,18.79-.38,24.37,18.92,26,7.6.63,15.3,0,22.94.4,8.15.41,12.14-3.18,14.61-11,7.82-24.78,16.47-49.31,24.67-74,7.1-21.38,7-21.41,29.14-21.41,19.94,0,39.87-.07,59.8,0,8.68,0,8.92.29,6.35,7.9-15.78,46.73-31.74,93.4-47.48,140.15-1.58,4.7-3.92,6.6-9,6.56q-37.93-.33-75.89,0c-5.44,0-8-.91-5.73-7.06,1.54-4.12,2.17-8.58,3.21-12.89-4.16,1.53-8.38,2.94-12.49,4.63-26.69,11-54.07,17.37-82.91,10.69-37.34-8.67-53.9-38.58-41.79-75.09,6.26-18.86,13.23-37.49,19.57-56.33,3.46-10.28,3.19-10.58-8-10.82-19.34-.41-14.6-3-20.42,13.86q-19.83,57.48-38.74,115.26c-2.15,6.58-5.13,8.95-12.06,9-24.15.07-48.29.87-72.43,1.27-11,.18-11,.06-8.73-11.32a57.16,57.16,0,0,0,.51-6.82l.26-.48,0,.71c-3.53,1.13-7.21,1.92-10.55,3.45-16.44,7.53-33.15,14.64-51.41,15.36-10.93.43-22.33-.08-32.87-2.75-24-6.07-36.7-22.25-39.08-46.68a19.1,19.1,0,0,0-.21-2.29c-.91-4-1.88-7.93-2.83-11.9-1.26,3.57-2.46,7.15-3.79,10.7-7,18.59-13.31,37.49-21.2,55.7-12.85,29.68-35.22,47.24-68,51.27-36.64,4.5-73.32,7.38-110,2.65-11.15-1.44-22.26-5.5-32.6-10.11-10.12-4.51-14.92-13.89-15.74-25-.43-5.87,1-9.68,8.13-9.06,6.49.56,13,.24,19.53.74,2.53.19,5.77.83,7.31,2.52,5.93,6.53,13.54,7.14,21.2,6.25,17.46-2,35-3.72,52.2-7.33,21.17-4.45,30.68-21.3,37.65-39.85.35-.94-.11-2.18-.19-3.27a17.12,17.12,0,0,0-3.74,1.51c-3.42,2.45-6.63,5.2-10.07,7.63-27.9,19.73-58.74,23.22-91,15-24.4-6.22-34.88-22-34.4-48.68.07-1.33.14-2.65.2-4l0,4.27c-1.65,2.76-3.75,5.36-4.87,8.32-5.36,14.27-10.73,28.55-15.52,43-2,5.91-4.67,8.51-11.3,8.5-25.2,0-50.41.69-75.61.94-8.42.09-8.31-.11-5.48-8.26,2.2-6.36,4-12.82,6.06-19.24l1.31-1-1.09,1.31c-3.26,1.91-6.56,3.77-9.78,5.76-25.48,15.67-52.53,24.88-83,19.94-33-5.36-49.75-26.44-46.17-59.68,1.5-14,5.63-27.64,8.55-41.45.23-1.07.37-2.16.55-3.25-1.12.57-2.52.88-3.32,1.74q-17.53,19-34.94,38.15c-18.86,20.66-37.79,41.26-56.5,62-3.83,4.25-7.75,6.59-13.77,6.55q-41.4-.21-82.8.42c-6.36.09-9.52-1.08-10.34-8.44-5-45.27-10.61-90.48-16.07-135.7-.19-1.52-1.11-2.95-1.69-4.43a21,21,0,0,0-2.36,3.78q-12.88,36.21-25.66,72.46c-7,19.83-14.24,39.6-20.89,59.55-2.15,6.42-5.26,8.9-12.29,8.87-24.53-.09-49.06.66-73.59.9-9.41.09-9.49-.27-6.42-8.69,2.06-5.65,4-11.33,6.06-17-5.6,2.79-11.37,5.31-16.79,8.43-24.34,14-50.07,20.81-78.22,15.77-18.66-3.33-32.55-12.61-39.51-31-3-7.87-3.6-8-8.92-2.35-16.53,17.62-37.3,25.56-60.75,29.4-41.21,6.76-82.28,9.88-123.09-1.25A166.68,166.68,0,0,1,113,574.19C73.18,552.36,62.55,513,74,473.84c11.32-38.68,42.62-61.31,82.87-62.43,10.68-.3,21.34-1.53,32-2.62,1.66-.17,3.16-1.87,4.73-2.86-1.84-.83-3.66-2.33-5.52-2.38-17.25-.51-34.5-1.28-51.74-1-28.09.5-46.07-15.85-61.9-35.94-1.94-2.46-2.23-6.22-3.28-9.38A86.23,86.23,0,0,1,80,356.1c6.13-.18,12.27,0,18.4-.06,32.85-.12,65.65,1.32,98.16-6.71,23.62-5.82,48.1-3.44,72.15-1.2,32.79,3.05,65.5,7,98.25,10.54,13,1.39,13.17,1.32,13.65,14.29.45,11.87.5,23.75.74,35.62.1,5.18-1.59,6.22-5.83,2.84-13.25-10.56-28.85-13.56-45.28-13.72-23.85-.23-47.55.92-70.22,9.34-39,14.49-63.34,41.69-70.91,83a63.11,63.11,0,0,0-1,10.27c-.57,31.45,15.07,47.22,46.44,45.93a251.76,251.76,0,0,0,35.32-4.3c19.95-3.69,39.7-8.36,59.62-12.2,5.27-1,7.3-3,8.4-8.48,6.51-32.48,23-58.85,49.92-78.51,17.49-12.77,37.76-18.21,58.56-22.13,36.49-6.87,73.3-4.8,110.07-3.55,4.21.14,8.43.29,12.63.68,41.44,3.85,82.94,6.62,124.59,4.92,7.31-.3,7.92,3.28,7.89,9q-.25,44.25,0,88.5c0,3.48,1,7,1.6,10.44,2.32-2.45,4.81-4.78,6.94-7.39,25.25-30.83,50.55-61.61,75.53-92.65,4.25-5.28,8.64-7.55,15.47-7.48,24.92.28,49.84-.06,74.75-.09a46.55,46.55,0,0,1,6.58.94c-.9,2-1.68,4-2.73,5.93-1.27,2.31-2.76,4.51-4.15,6.76l-.24,1.38ZM498.68,459.83l-.17-.76c-11.24,2-22.81,2.94-33.66,6.22C433.18,474.86,422,506,422.92,527c.82,18.82,13.74,27.65,31.3,21.76,13.63-4.57,23.24-14.19,31.18-25.81,12.06-17.66,16.89-38.23,23.65-58,1.1-3.2.29-5.17-3.49-5.09C503.27,459.87,501,459.83,498.68,459.83Zm478.37,0c-6.95.85-15.36,1.41-23.6,3-32.38,6.1-54.19,35.4-50.49,67.38,1.82,15.8,13.16,24.25,28.17,18.91A68.3,68.3,0,0,0,956,533.67C975,514.58,980.88,488.73,988.43,464c.3-1-1.74-3.51-3.13-4C983.24,459.29,980.77,459.81,977.05,459.81Zm247.82-.17c-8.34,1-16.76,1.58-25,3.12-32.34,6-54.15,35.3-50.55,67.42,1.72,15.37,12.37,23.21,27.19,19.32a57.93,57.93,0,0,0,15.58-6.86c12.08-7.51,20.19-18.82,25.79-31.48,5.83-13.21,10.3-27,15.06-40.7C1236.68,459.7,1236.47,459.62,1224.87,459.64Z"/><path class="cls-3" d="M1832.05,427.41c-11.79-.81-24.19-4.07-34-13.88-12.61-12.65-12.73-30.32-.38-43.12,17.91-18.57,53.91-18.75,72.11-.37,12.86,13,12.66,31.1-.5,43.94C1860.76,422.33,1847,427.52,1832.05,427.41Z"/><path class="cls-1" d="M498.68,459.83c2.29,0,4.59,0,6.88,0,3.78-.08,4.59,1.89,3.49,5.09-6.76,19.8-11.59,40.37-23.65,58-7.94,11.62-17.55,21.24-31.18,25.81-17.56,5.89-30.48-2.94-31.3-21.76-.9-21,10.26-52.14,41.93-61.71,10.85-3.28,22.42-4.22,33.66-6.22Z"/><path class="cls-1" d="M977.05,459.81c3.72,0,6.19-.52,8.25.17,1.39.47,3.43,3,3.13,4-7.55,24.77-13.4,50.62-32.47,69.71a68.3,68.3,0,0,1-24.83,15.4c-15,5.34-26.35-3.11-28.17-18.91-3.7-32,18.11-61.28,50.49-67.38C961.69,461.22,970.1,460.66,977.05,459.81Z"/><path class="cls-1" d="M1224.87,459.64c11.6,0,11.81.06,8.07,10.82-4.76,13.66-9.23,27.49-15.06,40.7-5.6,12.66-13.71,24-25.79,31.48a57.93,57.93,0,0,1-15.58,6.86c-14.82,3.89-25.47-4-27.19-19.32-3.6-32.12,18.21-61.39,50.55-67.42C1208.11,461.22,1216.53,460.65,1224.87,459.64Z"/><path d="M1067.26,534.36l0-4.27c-.06,1.33-.13,2.65-.2,4Z"/><path d="M1091.66,461.64l-.34,2.05c.2-.59.4-1.18.61-1.77Z"/><path d="M875.24,436.48l.06,1.62.24-1.38Z"/><path d="M960.76,567.9l1.09-1.31-1.31,1Z"/><polygon points="1448.86 568.27 1448.82 567.56 1448.56 568.04 1448.86 568.27"/></svg>